# xmcd
#
# Track frame offsets:
#	150
#	21297
#	39082
#	54642
#	75017
#	98297
#	114675
#	133502
#
# Disc length: 1972 seconds
#
# Revision: 0
# Processed by: cddbd v1.4PL0 Copyright (c) Steve Scherf et al.
# Submitted via: dBpowerAMP V4.0
#
DISCID=4f07b208
DTITLE=RB de Haan - All rights reserved
DYEAR=2000
DGENRE=Blues
TTITLE0=rock train
TTITLE1=so much for my fantasy
TTITLE2=let yourself go
TTITLE3=something is wrong
TTITLE4=i gotta know
TTITLE5=make way for the wolves
TTITLE6=put the gun down
TTITLE7=hold on to your senses
EXTD=
EXTT0=
EXTT1=
EXTT2=
EXTT3=
EXTT4=
EXTT5=
EXTT6=
EXTT7=
PLAYORDER=
